<svg width="63" height="73" viewBox="0 0 63 73" fill="none" xmlns="http://www.w3.org/2000/svg">
<g clip-path="url(#clip0_2778_3888)">
<path d="M39.3435 0L30.5066 9.35956H28.2112L31.3069 0H39.3435Z" fill="#00B0AD"/>
<path d="M28.2165 15.2084C29.4064 13.7083 30.6878 12.6037 32.0554 11.8929C33.4248 11.182 34.9442 10.729 36.6136 10.729C38.3761 10.729 39.8576 11.1262 41.0562 11.7273C42.2548 12.3302 43.2016 13.2466 43.8983 14.4819C44.2381 15.123 44.4813 15.8461 44.6296 16.6493C44.7762 17.4542 44.8503 18.7156 44.8503 20.4335V33.762C44.8503 39.4157 45.7161 44.2 45.7161 44.2H39.1039C39.1039 44.2 38.2382 41.6215 38.2382 33.7707C38.2382 33.4275 38.2382 23.5121 38.2382 23.2229C38.2382 20.3952 37.9139 18.5275 37.2638 17.6215C36.6136 16.7155 35.5012 16.2625 33.9232 16.2625C33.0281 16.2573 32.2314 16.4332 31.407 16.8375C30.6378 17.2138 30.0032 17.7626 29.4927 18.4665C29.0908 19.0136 28.7994 19.639 28.6235 20.3412C28.4458 21.0433 28.3562 22.1148 28.3562 23.5522V24.4669V34.5913H21.744V19.8621C21.744 17.5483 21.6026 16.1614 21.3249 15.7032C21.1542 15.421 20.9352 15.2258 20.6713 15.1178C20.5092 15.0534 20.3281 15.022 20.1298 15.022C19.0364 15.022 18.3862 16.1824 18.1775 18.5031H17.2859C17.2859 16.4907 17.7877 14.7833 18.7915 13.379C19.7607 12.0444 21.3163 11.1803 23.0702 11.1803C25.5381 11.1785 27.6129 12.8877 28.2165 15.2084Z" fill="white"/>
<path d="M0 72.277V53.5597H5.98095V57.3596C6.82428 55.8769 7.82628 54.7653 8.98694 54.0231C10.1114 53.3192 11.4738 52.9673 13.0743 52.9673C14.2832 52.9673 15.3594 53.152 16.2993 53.5231C17.2306 53.943 17.986 54.5109 18.562 55.2288C19.0897 55.9448 19.4381 56.7062 19.6105 57.5077C19.8192 58.5339 19.9227 59.8859 19.9227 61.5672V72.2788H13.3554V62.2519C13.3554 60.7326 13.1174 59.6455 12.6414 58.9904C12.1654 58.3109 11.391 57.9711 10.3183 57.9711C8.9766 57.9711 7.98839 58.4781 7.35374 59.4904C6.73115 60.5044 6.42072 62.1474 6.42072 64.4211V72.2788H0V72.277Z" fill="white"/>
<path d="M42.2323 64.2346H28.144C28.1802 65.6929 28.5406 66.8045 29.227 67.5711C29.9358 68.3621 30.9637 68.7576 32.3089 68.7576C33.2868 68.7576 34.1249 68.5659 34.8217 68.1826C35.5305 67.7749 36.0444 67.2191 36.3635 66.5153L41.2803 68.5171C40.706 69.9389 39.6661 71.0382 38.1622 71.8153C36.6704 72.6063 34.8424 73.0018 32.6762 73.0018C29.4478 73.0018 26.854 72.0871 24.8982 70.2594C22.9529 68.4806 21.9819 66.1023 21.9819 63.1248C21.9819 60.2221 22.9546 57.7934 24.8982 55.842C26.8436 53.9273 29.3132 52.969 32.3089 52.969C35.3666 52.969 37.7828 53.9394 39.5557 55.8786C40.4611 56.8787 41.1337 58.0443 41.5735 59.3719C42.0133 60.6995 42.234 62.217 42.234 63.9227V64.2346H42.2323ZM35.7926 60.5096C35.6822 59.4712 35.2856 58.6262 34.6009 57.9711C33.9162 57.316 33.0781 56.9884 32.0881 56.9884C31.0482 56.9884 30.2049 57.2794 29.5564 57.8596C28.8838 58.5147 28.4613 59.398 28.2906 60.5096H35.7926Z" fill="white"/>
<path d="M50.9657 56.7462C51.2951 57.4013 51.4969 57.8369 51.5711 58.053C51.6452 58.269 51.7107 58.4676 51.7728 58.6453C51.8332 58.8248 51.8711 58.9398 51.8832 58.9886C51.9194 58.8405 52.0177 58.5251 52.1764 58.0442C52.323 57.6609 52.5248 57.2289 52.7817 56.7462L54.5426 53.5579H61.936L55.5894 62.2501L63 72.277H55.6256L52.8559 67.5693C52.6731 67.2853 52.4834 66.9212 52.2868 66.4752C52.2505 66.3393 52.2005 66.1598 52.1402 65.9385C52.0781 65.7155 52.0177 65.5117 51.9574 65.327C51.7987 65.8706 51.6694 66.2539 51.5728 66.4752C51.4503 66.8463 51.2727 67.2104 51.0416 67.5693L48.3081 72.277H41.0613L48.3443 62.2501L42.1064 53.5579H49.2428L50.9657 56.7462Z" fill="white"/>
</g>
<defs>
<clipPath id="clip0_2778_3888">
<rect width="63" height="73" fill="white"/>
</clipPath>
</defs>
</svg>
