<svg width="419" height="45" viewBox="0 0 419 45" fill="none" xmlns="http://www.w3.org/2000/svg">
<g clip-path="url(#clip0_13562_11872)">
<path d="M0.877333 1.7998H418.533" stroke="#4FADAC" stroke-miterlimit="10"/>
<path d="M1.50922 2.89971C1.16021 2.89971 0.877291 2.40722 0.877291 1.79971C0.877291 1.19219 1.16021 0.699707 1.50922 0.699707C1.85823 0.699707 2.14114 1.19219 2.14114 1.79971C2.14114 2.40722 1.85823 2.89971 1.50922 2.89971Z" fill="#4FADAC"/>
<path d="M418.245 2.89971C417.896 2.89971 417.613 2.40722 417.613 1.79971C417.613 1.19219 417.896 0.699707 418.245 0.699707C418.594 0.699707 418.877 1.19219 418.877 1.79971C418.877 2.40722 418.594 2.89971 418.245 2.89971Z" fill="#4FADAC"/>
<path d="M1.50922 23.7996C1.16021 23.7996 0.877291 23.3071 0.877291 22.6996C0.877291 22.0921 1.16021 21.5996 1.50922 21.5996C1.85823 21.5996 2.14114 22.0921 2.14114 22.6996C2.14114 23.3071 1.85823 23.7996 1.50922 23.7996Z" fill="#4FADAC"/>
<path d="M190.632 23.7996C190.283 23.7996 190 23.3071 190 22.6996C190 22.0921 190.283 21.5996 190.632 21.5996C190.981 21.5996 191.264 22.0921 191.264 22.6996C191.264 23.3071 190.981 23.7996 190.632 23.7996Z" fill="#4FADAC"/>
<path d="M194.883 13.2996C194.534 13.2996 194.251 12.8071 194.251 12.1996C194.251 11.5921 194.534 11.0996 194.883 11.0996C195.232 11.0996 195.515 11.5921 195.515 12.1996C195.515 12.8071 195.232 13.2996 194.883 13.2996Z" fill="#4FADAC"/>
<path d="M418.245 23.7996C417.896 23.7996 417.613 23.3071 417.613 22.6996C417.613 22.0921 417.896 21.5996 418.245 21.5996C418.594 21.5996 418.877 22.0921 418.877 22.6996C418.877 23.3071 418.594 23.7996 418.245 23.7996Z" fill="#4FADAC"/>
<path d="M7.48394 12.1997H188.334L197.641 22.6997H418.245" stroke="#4FADAC" stroke-miterlimit="10"/>
<path d="M418.245 33.1997H131.459L122.152 43.5997H5.12846" stroke="#4FADAC" stroke-miterlimit="10"/>
<path d="M7.48398 13.2996C7.13497 13.2996 6.85202 12.8071 6.85202 12.1996C6.85202 11.5921 7.13497 11.0996 7.48398 11.0996C7.83299 11.0996 8.11591 11.5921 8.11591 12.1996C8.11591 12.8071 7.83299 13.2996 7.48398 13.2996Z" fill="#4FADAC"/>
<path d="M418.245 13.2996C417.896 13.2996 417.613 12.8071 417.613 12.1996C417.613 11.5921 417.896 11.0996 418.245 11.0996C418.594 11.0996 418.877 11.5921 418.877 12.1996C418.877 12.8071 418.594 13.2996 418.245 13.2996Z" fill="#4FADAC"/>
<path d="M135.079 44.6998C134.729 44.6998 134.447 44.2073 134.447 43.5998C134.447 42.9922 134.729 42.4998 135.079 42.4998C135.428 42.4998 135.71 42.9922 135.71 43.5998C135.71 44.2073 135.428 44.6998 135.079 44.6998Z" fill="#4FADAC"/>
<path d="M418.245 44.6998C417.896 44.6998 417.613 44.2073 417.613 43.5998C417.613 42.9922 417.896 42.4998 418.245 42.4998C418.594 42.4998 418.877 42.9922 418.877 43.5998C418.877 44.2073 418.594 44.6998 418.245 44.6998Z" fill="#4FADAC"/>
<path d="M418.245 34.2996C417.896 34.2996 417.613 33.8071 417.613 33.1996C417.613 32.5921 417.896 32.0996 418.245 32.0996C418.594 32.0996 418.877 32.5921 418.877 33.1996C418.877 33.8071 418.594 34.2996 418.245 34.2996Z" fill="#4FADAC"/>
<path d="M191.091 22.6997H1.50924" stroke="#4FADAC" stroke-miterlimit="10"/>
<path d="M418.475 12.1997H195.055" stroke="#4FADAC" stroke-miterlimit="10"/>
<path d="M417.843 43.5996H135.079" stroke="#4FADAC" stroke-miterlimit="10"/>
<path d="M10.0117 34.2996C9.6627 34.2996 9.37979 33.8071 9.37979 33.1996C9.37979 32.5921 9.6627 32.0996 10.0117 32.0996C10.3607 32.0996 10.6437 32.5921 10.6437 33.1996C10.6437 33.8071 10.3607 34.2996 10.0117 34.2996Z" fill="#4FADAC"/>
<path d="M5.12854 44.6998C4.77953 44.6998 4.49661 44.2073 4.49661 43.5998C4.49661 42.9922 4.77953 42.4998 5.12854 42.4998C5.47755 42.4998 5.7605 42.9922 5.7605 43.5998C5.7605 44.2073 5.47755 44.6998 5.12854 44.6998Z" fill="#4FADAC"/>
<path d="M122.152 34.2996C121.803 34.2996 121.521 33.8071 121.521 33.1996C121.521 32.5921 121.803 32.0996 122.152 32.0996C122.502 32.0996 122.784 32.5921 122.784 33.1996C122.784 33.8071 122.502 34.2996 122.152 34.2996Z" fill="#4FADAC"/>
<path d="M122.497 33.1997H10.0117" stroke="#4FADAC" stroke-miterlimit="10"/>
</g>
<defs>
<clipPath id="clip0_13562_11872">
<rect width="418" height="44" fill="white" transform="matrix(-1 0 0 1 418.877 0.699707)"/>
</clipPath>
</defs>
</svg>
