<svg width="134" height="25" viewBox="0 0 134 25" fill="none" xmlns="http://www.w3.org/2000/svg">
<path d="M134 0.625H0.110497" stroke="#4FADAC" stroke-miterlimit="10"/>
<path d="M133.797 1.25C133.909 1.25 134 0.970178 134 0.625C134 0.279822 133.909 0 133.797 0C133.686 0 133.595 0.279822 133.595 0.625C133.595 0.970178 133.686 1.25 133.797 1.25Z" fill="#4FADAC"/>
<path d="M0.202584 1.25C0.314468 1.25 0.405168 0.970178 0.405168 0.625C0.405168 0.279822 0.314468 0 0.202584 0C0.0906999 0 0 0.279822 0 0.625C0 0.970178 0.0906999 1.25 0.202584 1.25Z" fill="#4FADAC"/>
<path d="M133.797 13.125C133.909 13.125 134 12.8452 134 12.5C134 12.1548 133.909 11.875 133.797 11.875C133.686 11.875 133.595 12.1548 133.595 12.5C133.595 12.8452 133.686 13.125 133.797 13.125Z" fill="#4FADAC"/>
<path d="M73.1696 13.125C73.2815 13.125 73.3722 12.8452 73.3722 12.5C73.3722 12.1548 73.2815 11.875 73.1696 11.875C73.0577 11.875 72.967 12.1548 72.967 12.5C72.967 12.8452 73.0577 13.125 73.1696 13.125Z" fill="#4FADAC"/>
<path d="M71.8068 7.15894C71.9187 7.15894 72.0094 6.87911 72.0094 6.53394C72.0094 6.18876 71.9187 5.90894 71.8068 5.90894C71.6949 5.90894 71.6042 6.18876 71.6042 6.53394C71.6042 6.87911 71.6949 7.15894 71.8068 7.15894Z" fill="#4FADAC"/>
<path d="M0.202584 13.125C0.314468 13.125 0.405168 12.8452 0.405168 12.5C0.405168 12.1548 0.314468 11.875 0.202584 11.875C0.0906999 11.875 0 12.1548 0 12.5C0 12.8452 0.0906999 13.125 0.202584 13.125Z" fill="#4FADAC"/>
<path d="M131.882 6.53394H73.9063L70.9228 12.4998H0.202583" stroke="#4FADAC" stroke-miterlimit="10"/>
<path d="M0.202583 18.4661H92.1388L95.1223 24.3752H132.637" stroke="#4FADAC" stroke-miterlimit="10"/>
<path d="M131.882 7.15894C131.994 7.15894 132.085 6.87911 132.085 6.53394C132.085 6.18876 131.994 5.90894 131.882 5.90894C131.77 5.90894 131.68 6.18876 131.68 6.53394C131.68 6.87911 131.77 7.15894 131.882 7.15894Z" fill="#4FADAC"/>
<path d="M0.202584 7.15894C0.314468 7.15894 0.405168 6.87911 0.405168 6.53394C0.405168 6.18876 0.314468 5.90894 0.202584 5.90894C0.0906999 5.90894 0 6.18876 0 6.53394C0 6.87911 0.0906999 7.15894 0.202584 7.15894Z" fill="#4FADAC"/>
<path d="M90.9786 25C91.0904 25 91.1811 24.7202 91.1811 24.375C91.1811 24.0298 91.0904 23.75 90.9786 23.75C90.8667 23.75 90.776 24.0298 90.776 24.375C90.776 24.7202 90.8667 25 90.9786 25Z" fill="#4FADAC"/>
<path d="M0.202584 25C0.314468 25 0.405168 24.7202 0.405168 24.375C0.405168 24.0298 0.314468 23.75 0.202584 23.75C0.0906999 23.75 0 24.0298 0 24.375C0 24.7202 0.0906999 25 0.202584 25Z" fill="#4FADAC"/>
<path d="M0.202584 19.0908C0.314468 19.0908 0.405168 18.811 0.405168 18.4658C0.405168 18.1206 0.314468 17.8408 0.202584 17.8408C0.0906999 17.8408 0 18.1206 0 18.4658C0 18.811 0.0906999 19.0908 0.202584 19.0908Z" fill="#4FADAC"/>
<path d="M73.0223 12.5H133.797" stroke="#4FADAC" stroke-miterlimit="10"/>
<path d="M0.128914 6.53394H71.7515" stroke="#4FADAC" stroke-miterlimit="10"/>
<path d="M0.331497 24.375H90.9786" stroke="#4FADAC" stroke-miterlimit="10"/>
<path d="M131.072 19.0908C131.184 19.0908 131.274 18.811 131.274 18.4658C131.274 18.1206 131.184 17.8408 131.072 17.8408C130.96 17.8408 130.869 18.1206 130.869 18.4658C130.869 18.811 130.96 19.0908 131.072 19.0908Z" fill="#4FADAC"/>
<path d="M132.637 25C132.749 25 132.84 24.7202 132.84 24.375C132.84 24.0298 132.749 23.75 132.637 23.75C132.525 23.75 132.435 24.0298 132.435 24.375C132.435 24.7202 132.525 25 132.637 25Z" fill="#4FADAC"/>
<path d="M95.1223 19.0908C95.2342 19.0908 95.3249 18.811 95.3249 18.4658C95.3249 18.1206 95.2342 17.8408 95.1223 17.8408C95.0104 17.8408 94.9197 18.1206 94.9197 18.4658C94.9197 18.811 95.0104 19.0908 95.1223 19.0908Z" fill="#4FADAC"/>
<path d="M95.0118 18.4661H131.072" stroke="#4FADAC" stroke-miterlimit="10"/>
</svg>
