<svg width="889" height="45" viewBox="0 0 889 45" fill="none" xmlns="http://www.w3.org/2000/svg">
<g clip-path="url(#clip0_13562_11841)">
<path d="M889 1.7998H0.733093" stroke="#4FADAC" stroke-miterlimit="10"/>
<path d="M887.656 2.89971C888.398 2.89971 889 2.40722 889 1.79971C889 1.19219 888.398 0.699707 887.656 0.699707C886.914 0.699707 886.312 1.19219 886.312 1.79971C886.312 2.40722 886.914 2.89971 887.656 2.89971Z" fill="#4FADAC"/>
<path d="M1.34401 2.89971C2.08628 2.89971 2.68802 2.40722 2.68802 1.79971C2.68802 1.19219 2.08628 0.699707 1.34401 0.699707C0.601733 0.699707 0 1.19219 0 1.79971C0 2.40722 0.601733 2.89971 1.34401 2.89971Z" fill="#4FADAC"/>
<path d="M887.656 23.7996C888.398 23.7996 889 23.3071 889 22.6996C889 22.0921 888.398 21.5996 887.656 21.5996C886.914 21.5996 886.312 22.0921 886.312 22.6996C886.312 23.3071 886.914 23.7996 887.656 23.7996Z" fill="#4FADAC"/>
<path d="M485.431 23.7996C486.173 23.7996 486.775 23.3071 486.775 22.6996C486.775 22.0921 486.173 21.5996 485.431 21.5996C484.689 21.5996 484.087 22.0921 484.087 22.6996C484.087 23.3071 484.689 23.7996 485.431 23.7996Z" fill="#4FADAC"/>
<path d="M476.39 13.2996C477.132 13.2996 477.734 12.8071 477.734 12.1996C477.734 11.5921 477.132 11.0996 476.39 11.0996C475.647 11.0996 475.046 11.5921 475.046 12.1996C475.046 12.8071 475.647 13.2996 476.39 13.2996Z" fill="#4FADAC"/>
<path d="M1.34401 23.7996C2.08628 23.7996 2.68802 23.3071 2.68802 22.6996C2.68802 22.0921 2.08628 21.5996 1.34401 21.5996C0.601733 21.5996 0 22.0921 0 22.6996C0 23.3071 0.601733 23.7996 1.34401 23.7996Z" fill="#4FADAC"/>
<path d="M874.949 12.1997H490.318L470.525 22.6997H1.34399" stroke="#4FADAC" stroke-miterlimit="10"/>
<path d="M1.34399 33.1997H611.279L631.073 43.5997H879.959" stroke="#4FADAC" stroke-miterlimit="10"/>
<path d="M874.949 13.2996C875.691 13.2996 876.293 12.8071 876.293 12.1996C876.293 11.5921 875.691 11.0996 874.949 11.0996C874.207 11.0996 873.605 11.5921 873.605 12.1996C873.605 12.8071 874.207 13.2996 874.949 13.2996Z" fill="#4FADAC"/>
<path d="M1.34401 13.2996C2.08628 13.2996 2.68802 12.8071 2.68802 12.1996C2.68802 11.5921 2.08628 11.0996 1.34401 11.0996C0.601733 11.0996 0 11.5921 0 12.1996C0 12.8071 0.601733 13.2996 1.34401 13.2996Z" fill="#4FADAC"/>
<path d="M603.582 44.6998C604.324 44.6998 604.926 44.2073 604.926 43.5998C604.926 42.9922 604.324 42.4998 603.582 42.4998C602.839 42.4998 602.238 42.9922 602.238 43.5998C602.238 44.2073 602.839 44.6998 603.582 44.6998Z" fill="#4FADAC"/>
<path d="M1.34401 44.6998C2.08628 44.6998 2.68802 44.2073 2.68802 43.5998C2.68802 42.9922 2.08628 42.4998 1.34401 42.4998C0.601733 42.4998 0 42.9922 0 43.5998C0 44.2073 0.601733 44.6998 1.34401 44.6998Z" fill="#4FADAC"/>
<path d="M1.34401 34.2996C2.08628 34.2996 2.68802 33.8071 2.68802 33.1996C2.68802 32.5921 2.08628 32.0996 1.34401 32.0996C0.601733 32.0996 0 32.5921 0 33.1996C0 33.8071 0.601733 34.2996 1.34401 34.2996Z" fill="#4FADAC"/>
<path d="M484.454 22.6997H887.656" stroke="#4FADAC" stroke-miterlimit="10"/>
<path d="M0.855286 12.1997H476.023" stroke="#4FADAC" stroke-miterlimit="10"/>
<path d="M2.19928 43.5996H603.582" stroke="#4FADAC" stroke-miterlimit="10"/>
<path d="M869.573 34.2996C870.315 34.2996 870.917 33.8071 870.917 33.1996C870.917 32.5921 870.315 32.0996 869.573 32.0996C868.831 32.0996 868.229 32.5921 868.229 33.1996C868.229 33.8071 868.831 34.2996 869.573 34.2996Z" fill="#4FADAC"/>
<path d="M879.959 44.6998C880.701 44.6998 881.303 44.2073 881.303 43.5998C881.303 42.9922 880.701 42.4998 879.959 42.4998C879.216 42.4998 878.615 42.9922 878.615 43.5998C878.615 44.2073 879.216 44.6998 879.959 44.6998Z" fill="#4FADAC"/>
<path d="M631.073 34.2996C631.815 34.2996 632.417 33.8071 632.417 33.1996C632.417 32.5921 631.815 32.0996 631.073 32.0996C630.33 32.0996 629.729 32.5921 629.729 33.1996C629.729 33.8071 630.33 34.2996 631.073 34.2996Z" fill="#4FADAC"/>
<path d="M630.34 33.1997H869.573" stroke="#4FADAC" stroke-miterlimit="10"/>
</g>
<defs>
<clipPath id="clip0_13562_11841">
<rect width="889" height="44" fill="white" transform="translate(0 0.699707)"/>
</clipPath>
</defs>
</svg>
