<svg width="91" height="25" viewBox="0 0 91 25" fill="none" xmlns="http://www.w3.org/2000/svg">
<path d="M2.5332e-05 0.625H90.925" stroke="#4FADAC" stroke-miterlimit="10"/>
<path d="M0.137574 1.25C0.061593 1.25 1.40071e-06 0.970178 1.40071e-06 0.625C1.40071e-06 0.279822 0.061593 0 0.137574 0C0.213555 0 0.275146 0.279822 0.275146 0.625C0.275146 0.970178 0.213555 1.25 0.137574 1.25Z" fill="#4FADAC"/>
<path d="M90.8624 1.25C90.7864 1.25 90.7248 0.970178 90.7248 0.625C90.7248 0.279822 90.7864 0 90.8624 0C90.9384 0 91 0.279822 91 0.625C91 0.970178 90.9384 1.25 90.8624 1.25Z" fill="#4FADAC"/>
<path d="M0.137574 13.125C0.061593 13.125 1.40071e-06 12.8452 1.40071e-06 12.5C1.40071e-06 12.1548 0.061593 11.875 0.137574 11.875C0.213555 11.875 0.275146 12.1548 0.275146 12.5C0.275146 12.8452 0.213555 13.125 0.137574 13.125Z" fill="#4FADAC"/>
<path d="M41.3102 13.125C41.2342 13.125 41.1726 12.8452 41.1726 12.5C41.1726 12.1548 41.2342 11.875 41.3102 11.875C41.3862 11.875 41.4478 12.1548 41.4478 12.5C41.4478 12.8452 41.3862 13.125 41.3102 13.125Z" fill="#4FADAC"/>
<path d="M42.2357 7.15894C42.1597 7.15894 42.0981 6.87911 42.0981 6.53394C42.0981 6.18876 42.1597 5.90894 42.2357 5.90894C42.3117 5.90894 42.3733 6.18876 42.3733 6.53394C42.3733 6.87911 42.3117 7.15894 42.2357 7.15894Z" fill="#4FADAC"/>
<path d="M90.8624 13.125C90.7864 13.125 90.7248 12.8452 90.7248 12.5C90.7248 12.1548 90.7864 11.875 90.8624 11.875C90.9384 11.875 91 12.1548 91 12.5C91 12.8452 90.9384 13.125 90.8624 13.125Z" fill="#4FADAC"/>
<path d="M1.43826 6.53418H40.8099L42.836 12.5001H90.8624" stroke="#4FADAC" stroke-miterlimit="10"/>
<path d="M90.8624 18.4658H28.4281L26.402 24.3749H0.925472" stroke="#4FADAC" stroke-miterlimit="10"/>
<path d="M1.43829 7.15894C1.36231 7.15894 1.30071 6.87911 1.30071 6.53394C1.30071 6.18876 1.36231 5.90894 1.43829 5.90894C1.51428 5.90894 1.57587 6.18876 1.57587 6.53394C1.57587 6.87911 1.51428 7.15894 1.43829 7.15894Z" fill="#4FADAC"/>
<path d="M90.8624 7.15894C90.7864 7.15894 90.7248 6.87911 90.7248 6.53394C90.7248 6.18876 90.7864 5.90894 90.8624 5.90894C90.9384 5.90894 91 6.18876 91 6.53394C91 6.87911 90.9384 7.15894 90.8624 7.15894Z" fill="#4FADAC"/>
<path d="M29.2161 25C29.1401 25 29.0785 24.7202 29.0785 24.375C29.0785 24.0298 29.1401 23.75 29.2161 23.75C29.292 23.75 29.3536 24.0298 29.3536 24.375C29.3536 24.7202 29.292 25 29.2161 25Z" fill="#4FADAC"/>
<path d="M90.8624 25C90.7864 25 90.7248 24.7202 90.7248 24.375C90.7248 24.0298 90.7864 23.75 90.8624 23.75C90.9384 23.75 91 24.0298 91 24.375C91 24.7202 90.9384 25 90.8624 25Z" fill="#4FADAC"/>
<path d="M90.8624 19.0908C90.7864 19.0908 90.7248 18.811 90.7248 18.4658C90.7248 18.1206 90.7864 17.8408 90.8624 17.8408C90.9384 17.8408 91 18.1206 91 18.4658C91 18.811 90.9384 19.0908 90.8624 19.0908Z" fill="#4FADAC"/>
<path d="M41.4102 12.5H0.137569" stroke="#4FADAC" stroke-miterlimit="10"/>
<path d="M90.9124 6.53418H42.2732" stroke="#4FADAC" stroke-miterlimit="10"/>
<path d="M90.7749 24.375H29.2161" stroke="#4FADAC" stroke-miterlimit="10"/>
<path d="M1.98858 19.0908C1.9126 19.0908 1.85101 18.811 1.85101 18.4658C1.85101 18.1206 1.9126 17.8408 1.98858 17.8408C2.06456 17.8408 2.12616 18.1206 2.12616 18.4658C2.12616 18.811 2.06456 19.0908 1.98858 19.0908Z" fill="#4FADAC"/>
<path d="M0.9255 25C0.849519 25 0.787927 24.7202 0.787927 24.375C0.787927 24.0298 0.849519 23.75 0.9255 23.75C1.00148 23.75 1.06308 24.0298 1.06308 24.375C1.06308 24.7202 1.00148 25 0.9255 25Z" fill="#4FADAC"/>
<path d="M26.402 19.0908C26.326 19.0908 26.2644 18.811 26.2644 18.4658C26.2644 18.1206 26.326 17.8408 26.402 17.8408C26.478 17.8408 26.5396 18.1206 26.5396 18.4658C26.5396 18.811 26.478 19.0908 26.402 19.0908Z" fill="#4FADAC"/>
<path d="M26.4771 18.4658H1.9886" stroke="#4FADAC" stroke-miterlimit="10"/>
</svg>
